HIERARCHY
ROOT Hips
{
	OFFSET 0.000000 0.000000 0.000000 
	CHANNELS 6 Xposition Yposition Zposition Yrotation Zrotation Xrotation 
	JOINT Lumbar
	{
		OFFSET 0.000000 0.000000 0.000000 
		CHANNELS 3 Zrotation Xrotation Yrotation
		JOINT Neck
		{
			OFFSET 0.000000 0.445665 0.000000 
			CHANNELS 3 Zrotation Xrotation Yrotation
			End Site
			{
				OFFSET 0.000000 0.227535 0.000000 
			}
		}
		JOINT RightShoulder
		{
			OFFSET 0.019635 0.377685 0.194865 
			CHANNELS 3 Zrotation Xrotation Yrotation
			JOINT RightElbow
			{
				OFFSET 0.000000 -0.243375 0.000000 
				CHANNELS 2 Zrotation Yrotation
				JOINT RightWrist
				{
					OFFSET 0.000000 -0.264825 0.000000 
					CHANNELS 2 Zrotation Xrotation
					End Site
					{
						OFFSET 0.006600 -0.176220 0.000990 
					}
				}
			}
		}
		JOINT LeftShoulder
		{
			OFFSET 0.019635 0.377685 -0.194865 
			CHANNELS 3 Zrotation Xrotation Yrotation
			JOINT LeftElbow
			{
				OFFSET 0.000000 -0.243375 0.000000 
				CHANNELS 2 Zrotation Yrotation
				JOINT LeftWrist
				{
					OFFSET 0.000000 -0.264825 0.000000 
					CHANNELS 2 Zrotation Xrotation
					End Site
					{
						OFFSET 0.006600 -0.176220 -0.000990 
					}
				}
			}
		}
	}
	JOINT RightHip
	{
		OFFSET 0.052140 -0.069960 0.075570 
		CHANNELS 3 Zrotation Xrotation Yrotation
		JOINT RightKnee
		{
			OFFSET 0.000000 -0.402270 0.000000 
			CHANNELS 1 Zrotation
			JOINT RightAnkle
			{
				OFFSET 0.000000 -0.404085 0.000000 
				CHANNELS 3 Zrotation Xrotation Yrotation
				End Site
				{
					OFFSET 0.204105 -0.089430 0.008415 
				}
			}
		}
	}
	JOINT LeftHip
	{
		OFFSET 0.052140 -0.069960 -0.075570 
		CHANNELS 3 Zrotation Xrotation Yrotation
		JOINT LeftKnee
		{
			OFFSET 0.000000 -0.402270 0.000000 
			CHANNELS 1 Zrotation
			JOINT LeftAnkle
			{
				OFFSET 0.000000 -0.404085 0.000000 
				CHANNELS 3 Zrotation Xrotation Yrotation
				End Site
				{
					OFFSET 0.204105 -0.089430 -0.008415 
				}
			}
		}
	}
}
MOTION
Frames: 11
Frame Time: 0.02
-0.00102 0.00026 0.00064 22.25633 -31.87409 -5.43616 48.55032 2.39208 -4.12173 6.42799 -2.20895 -0.47494 -9.39871 -8.19957 -17.79812 36.95044 145.41835 19.67418 10.94709 -12.16504 -1.84524 38.15695 45.70477 -181.86992 37.46889 -16.07183 45.70643 -3.33299 -10.22998 -19.1833 -6.30359 -2.42505 -3.41021 49.21822 4.78753 2.51898 -24.86113 -6.40689 2.32422 3.36036
-0.00063 0.00024 0.00044 22.35454 -31.80607 -5.45759 48.59261 2.36572 -4.09106 6.25659 -2.18463 -0.47936 -9.99493 -8.51402 -16.69092 36.79793 139.83167 18.09545 10.0107 -12.919 -0.50586 34.66156 45.68155 -173.49323 34.63842 -14.68331 45.59507 -3.23882 -9.76424 -19.19068 -6.31995 -2.488 -3.43892 49.1132 4.86585 2.81077 -24.86477 -6.40033 2.28995 3.34224
-0.00025 0.00022 0.00024 22.45254 -31.73821 -5.47898 48.6348 2.33942 -4.06039 6.08545 -2.16033 -0.48378 -10.59038 -8.82718 -15.58752 36.64574 134.26264 16.52174 9.07727 -13.67169 0.82913 31.17677 45.65828 -165.14259 31.8169 -13.29906 45.48394 -3.14504 -9.30063 -19.19804 -6.33623 -2.5507 -3.4675 49.00842 4.94393 3.10157 -24.8684 -6.3938 2.25579 3.32418
0.00014 0.0002 4e-05 22.55046 -31.67038 -5.50035 48.67697 2.31314 -4.0298 5.91453 -2.13608 -0.48819 -11.18494 -9.14063 -14.48371 36.49368 128.69296 14.94781 8.14373 -14.42349 2.16434 27.69211 45.63511 -156.79175 28.99519 -11.91481 45.3729 -3.05118 -8.83646 -19.20539 -6.35254 -2.61345 -3.49611 48.90371 5.02201 3.39243 -24.87203 -6.38726 2.22163 3.30611
0.00052 0.00018 -0.00017 22.64856 -31.60242 -5.52174 48.71921 2.28681 -3.99924 5.74344 -2.11183 -0.4926 -11.77985 -9.45544 -13.37616 36.34135 123.10626 13.36904 7.20734 -15.17618 3.50403 24.19693 45.61203 -148.41476 26.16447 -10.5263 45.26167 -2.9569 -8.36986 -19.21276 -6.36892 -2.67646 -3.52486 48.79877 5.10035 3.68436 -24.87567 -6.3807 2.18736 3.28799
0.00091 0.00016 -0.00037 22.74636 -31.53477 -5.54314 48.76129 2.26056 -3.96836 5.57224 -2.08743 -0.49701 -12.37638 -9.76508 -12.28167 36.18945 117.57512 11.80615 6.28025 -15.92885 4.82909 20.73418 45.58838 -140.12 23.36242 -9.15109 45.15077 -2.86419 -7.91254 -19.22009 -6.38499 -2.7385 -3.55311 48.69435 5.17789 3.97279 -24.87927 -6.3742 2.15343 3.27005
0.00129 0.00014 -0.00057 22.84464 -31.46655 -5.5645 48.80367 2.23419 -3.93816 5.40144 -2.06336 -0.50143 -12.96901 -10.08493 -11.16163 36.03689 111.93656 10.21254 5.33519 -16.68064 6.18204 17.21016 45.56591 -131.66939 20.50592 -7.7507 45.03931 -2.76843 -7.43719 -19.22749 -6.40168 -2.80243 -3.58231 48.58899 5.25691 4.26781 -24.88296 -6.3676 2.11887 3.25177
0.00168 0.00012 -0.00077 22.94248 -31.39887 -5.5859 48.84575 2.20793 -3.90731 5.23027 -2.03898 -0.50584 -13.56521 -10.39506 -10.06603 35.88489 106.40017 8.64817 4.4072 -17.43339 7.5094 13.74231 45.54232 -123.36165 17.69936 -6.37339 44.92839 -2.67544 -6.97823 -19.23483 -6.4178 -2.86464 -3.61066 48.48451 5.33463 4.55701 -24.88657 -6.36109 2.08486 3.23379
0.00206 0.0001 -0.00097 23.03985 -31.33178 -5.60734 48.88757 2.18178 -3.87572 5.05853 -2.01424 -0.51025 -14.16634 -10.69461 -8.9964 35.73367 100.97406 7.1153 3.49774 -18.18726 8.80548 10.34294 45.51745 -115.2285 14.9538 -5.02429 44.81797 -2.58597 -6.54018 -19.2421 -6.43318 -2.92468 -3.6379 48.381 5.41055 4.83819 -24.89007 -6.3547 2.05162 3.21623
0.00245 8e-05 -0.00118 23.14013 -31.26108 -5.62854 48.93123 2.15493 -3.84854 4.88969 -1.99163 -0.51469 -14.74085 -11.05892 -7.76557 35.57823 94.8694 5.38839 2.47462 -18.93458 10.28157 6.54893 45.50021 -106.09041 11.85705 -3.51281 44.70418 -2.47665 -5.98444 -19.24976 -6.45271 -2.99699 -3.67132 48.27159 5.49621 5.16277 -24.89416 -6.34761 2.01423 3.1964
0.00282 6e-05 -0.00137 23.23413 -31.19814 -5.65022 48.97078 2.12962 -3.81201 4.71504 -1.96449 -0.51905 -15.37021 -11.28416 -6.88244 35.43154 90.22484 4.07912 1.69585 -19.69558 11.37777 3.58823 45.46672 -99.07341 9.50155 -2.34407 44.59784 -2.40895 -5.67527 -19.25662 -6.46356 -3.04353 -3.69181 48.17485 5.5617 5.39753 -24.89703 -6.34201 1.98542 3.18129
